<?xml version="1.0" standalone="no"?><!DOCTYPE svg PUBLIC "-//W3C//DTD SVG 1.1//EN" "http://www.w3.org/Graphics/SVG/1.1/DTD/svg11.dtd"><svg class="icon" width="200px" height="188.06px" viewBox="0 0 1089 1024" version="1.1" xmlns="http://www.w3.org/2000/svg"><path d="M930.295248 423.590291c-51.987692-110.578872-143.311863-162.352137-228.194462-146.703317-106.86359 20.672547-182.412034 128.030632-204.126085 250.639317-62.201436 29.140239-103.581538 93.415932-108.158906 164.74147-5.356308 91.941197 51.606974 179.891419 139.137094 197.014974l318.534017 55.593573c99.310496 20.020513 205.994667-94.649983 212.475624-257.36971 5.391316-124.556034-53.121094-233.533265-129.667282-263.916307z" fill="#1F2930" opacity=".8" /><path d="M675.853128 276.659419c-68.301675-143.500034-182.801504-202.143726-277.38147-174.670769-119.545436 36.281983-190.980376 173.896205-212.64629 319.544888-70.345299 36.667077-116.609094 110.898325-124.726701 192.520753-9.286017 104.710564 45.296684 212.256821 143.079931 242.316034 119.147214 32.588581 238.294427 65.185915 357.437265 97.787624 110.408205 35.257983 254.057026-109.71241 267.640342-328.82653 11.154598-167.187692-63.238564-312.302496-153.403077-348.672z" fill="#545F66" opacity=".8" /><path d="M960.792068 295.463385c-1.527248-7.837538-9.19412-14.983658-19.241572-17.77559a929.708855 929.708855 0 0 0-173.060376-30.873163c55.838632-49.839043 120.433778-94.654359 192.92335-132.196649 7.496205-3.877197 10.126222-10.743248 6.590359-17.92-3.544615-7.163624-12.743111-13.382017-23.79706-15.920137h-0.008752a1121.266872 1121.266872 0 0 0-355.170461-23.753299c-11.802256 1.085265-22.051009 6.463453-26.125129 13.508923-55.31788 95.240752-94.418051 194.511863-117.265504 293.629812-1.474735 6.397812 1.080889 12.53306 6.581607 16.357744 5.50947 3.82906 13.18947 4.866188 20.510632 2.835692a819.606974 819.606974 0 0 1 154.164513-27.354803c-41.734564 75.014564-70.761026 153.171145-87.022496 231.231453-1.785436 8.625231 2.568752 17.666188 9.846154 21.54776 3.426462 1.837949 7.049846 2.279932 10.375658 1.505368 3.737162-0.883966 7.093607-3.31706 9.369163-7.106735 73.246632-123.12506 204.04294-232.995009 379.501402-290.207727 8.542085-2.796308 13.355761-9.666735 11.828512-17.508649z" fill="#FFCA1C" /></svg>