<?xml version="1.0" standalone="no"?><!DOCTYPE svg PUBLIC "-//W3C//DTD SVG 1.1//EN" "http://www.w3.org/Graphics/SVG/1.1/DTD/svg11.dtd"><svg t="1731720888413" class="icon" viewBox="0 0 1024 1024" version="1.1" xmlns="http://www.w3.org/2000/svg" p-id="16849" xmlns:xlink="http://www.w3.org/1999/xlink" width="200" height="200"><path d="M512 0C228.8 0 0 228.8 0 512c0 283.2 228.8 512 512 512s512-228.8 512-512C1024 228.8 795.2 0 512 0zM545.6 953.6 545.6 785.6c0-19.2-16-33.6-33.6-33.6-19.2 0-33.6 16-33.6 33.6l0 169.6c-217.6-16-392-190.4-408-408l169.6 0c19.2 0 33.6-16 33.6-33.6 0-19.2-16-33.6-33.6-33.6L70.4 480c16-217.6 190.4-392 408-408l0 169.6c0 19.2 16 33.6 33.6 33.6 19.2 0 33.6-16 33.6-33.6L545.6 70.4c217.6 16 392 190.4 408 408L785.6 478.4c-19.2 0-33.6 16-33.6 33.6 0 19.2 16 33.6 33.6 33.6l169.6 0C937.6 763.2 763.2 937.6 545.6 953.6z" fill="#272636" p-id="16850"></path></svg>