<?xml version="1.0" standalone="no"?><!DOCTYPE svg PUBLIC "-//W3C//DTD SVG 1.1//EN" "http://www.w3.org/Graphics/SVG/1.1/DTD/svg11.dtd"><svg t="1731756772031" class="icon" viewBox="0 0 1024 1024" version="1.1" xmlns="http://www.w3.org/2000/svg" p-id="6910" xmlns:xlink="http://www.w3.org/1999/xlink" width="200" height="200"><path d="M495.75 245.36h344.42v82.04H594.04v152.93h225.13v78.27H594.04v220.04h-98.29V245.36z" fill="#2E3133" p-id="6911"></path><path d="M172.34 512c-0.1-15.73 3.04-31.32 9.23-45.78a119.992 119.992 0 0 1 63.13-63.13c14.46-6.19 30.05-9.33 45.78-9.23 15.73-0.1 31.32 3.04 45.78 9.23a119.992 119.992 0 0 1 63.13 63.13c6.19 14.46 9.33 30.05 9.23 45.78 0.1 15.73-3.04 31.32-9.23 45.78a119.992 119.992 0 0 1-63.13 63.13 114.497 114.497 0 0 1-45.78 9.23c-15.73 0.1-31.32-3.04-45.78-9.23a119.992 119.992 0 0 1-63.13-63.13 114.497 114.497 0 0 1-9.23-45.78z m57.59 0a58.345 58.345 0 0 0 17.72 42.83 58.345 58.345 0 0 0 42.83 17.72c16.11 0.26 31.61-6.15 42.83-17.72A58.345 58.345 0 0 0 351.03 512a58.345 58.345 0 0 0-17.72-42.83 58.345 58.345 0 0 0-42.83-17.72 58.383 58.383 0 0 0-42.83 17.72A58.422 58.422 0 0 0 229.93 512z" fill="#2E3133" opacity=".3" p-id="6912"></path></svg>