<?xml version="1.0" standalone="no"?><!DOCTYPE svg PUBLIC "-//W3C//DTD SVG 1.1//EN" "http://www.w3.org/Graphics/SVG/1.1/DTD/svg11.dtd"><svg t="1731756693465" class="icon" viewBox="0 0 1024 1024" version="1.1" xmlns="http://www.w3.org/2000/svg" p-id="5313" xmlns:xlink="http://www.w3.org/1999/xlink" width="200" height="200"><path d="M512 85.333333C276.906667 85.333333 85.333333 276.906667 85.333333 512s191.573333 426.666667 426.666667 426.666667 426.666667-191.573333 426.666667-426.666667S747.093333 85.333333 512 85.333333z m-50.346667 453.973334c3.84 8.533333 8.533333 16.213333 14.933334 23.04 6.4 6.4 13.653333 11.52 22.186666 15.36 8.533333 4.266667 17.92 5.973333 27.733334 6.4 9.813333 0 19.2-1.28 27.306666-4.693334 8.533333-3.413333 16.64-8.96 24.746667-16.64 3.413333-3.413333 7.68-5.973333 12.373333-7.68 4.693333-1.706667 9.813333-2.986667 14.933334-2.986666 4.693333 0 9.813333 0.853333 14.506666 2.56a35.498667 35.498667 0 0 1 20.906667 20.48 43.349333 43.349333 0 0 1 0 29.44 38.826667 38.826667 0 0 1-8.106667 12.373333c-14.933333 14.506667-31.573333 26.026667-49.92 33.28-18.346667 7.253333-37.546667 11.093333-57.173333 11.093333-13.226667 0-26.026667-1.706667-38.4-5.546666-12.8-3.413333-24.32-8.533333-34.986667-14.933334-11.093333-6.4-20.906667-14.08-29.866666-23.04a147.84 147.84 0 0 1-38.4-66.133333A142.933333 142.933333 0 0 1 384 474.026667c3.413333-12.8 8.106667-24.32 14.506667-35.413334 5.973333-11.093333 13.653333-21.333333 22.613333-30.72 8.96-8.96 18.773333-17.066667 29.866667-23.893333 11.093333-6.826667 23.04-11.946667 35.84-15.786667 13.226667-3.84 26.88-5.546667 41.386666-5.546666 19.2 0 37.973333 3.413333 55.893334 10.666666 18.346667 7.253333 34.986667 18.346667 49.92 32.853334 3.413333 3.84 6.4 8.106667 8.106666 12.373333 1.706667 4.693333 2.986667 9.386667 2.986667 14.506667 0 4.693333-1.28 9.386667-2.986667 14.08-2.133333 4.693333-4.693333 8.96-8.533333 12.8-3.84 3.413333-7.68 6.4-12.373333 8.533333-5.12 1.706667-9.813333 2.986667-14.933334 2.986667a39.253333 39.253333 0 0 1-14.08-2.56 40.661333 40.661333 0 0 1-12.8-8.106667c-7.253333-7.253333-15.36-12.8-23.893333-16.213333-8.96-2.986667-17.92-4.693333-27.733333-4.693334-9.386667 0-18.346667 1.706667-26.88 5.546667-8.533333 3.413333-16.213333 8.533333-23.04 14.933333-6.4 6.4-11.52 14.08-15.786667 22.613334-3.84 8.96-5.546667 18.346667-5.546667 28.586666 0 9.813333 1.706667 18.773333 5.12 27.733334z m-127.146666-204.8c23.466667 0 42.666667 19.2 42.666666 42.666666s-19.2 42.666667-42.666666 42.666667-42.666667-19.2-42.666667-42.666667 19.2-42.666667 42.666667-42.666666z" fill="#ffffff" p-id="5314"></path></svg>